<?xml version="1.0" encoding="UTF-8"?> <svg xmlns="http://www.w3.org/2000/svg" width="121" height="55" viewBox="0 0 121 55" fill="none"> <path d="M81.728 54.9599C96.9048 54.9599 109.208 42.6567 109.208 27.48C109.208 12.3032 96.9048 0 81.728 0C66.5512 0 54.248 12.3032 54.248 27.48C54.248 42.6567 66.5512 54.9599 81.728 54.9599Z" fill="url(#paint0_linear)"></path> <path d="M4.10199 16.3359H0.269531V21.1086H1.89833H4.03613C10.0244 21.1086 12.1023 23.6775 12.1023 27.5579C12.1023 31.8395 9.7968 34.6 4.03613 34.6H1.89833H0.269531V39.3726H3.61096C13.2879 39.3726 17.3659 34.1389 17.3659 27.5579C17.3659 21.5337 13.9766 16.3359 4.10199 16.3359Z" fill="black"></path> <path d="M21.0488 16.3359H38.6542V21.1086H26.1508V25.3901H37.8338V29.9951H26.1508V34.6H38.9536V39.3726H21.0488V16.3359Z" fill="black"></path> <path d="M43.8164 16.3359H48.9184V25.3183L57.769 16.3359H64.4159L54.4156 26.5399L65.0806 39.3786H58.3678L50.5651 29.9651L48.9184 31.6418V39.3786H43.8164V16.3359Z" fill="black"></path> <path d="M78.9012 16.3359H66.4277V21.1086H73.7992V39.3726H78.9012V16.3359Z" fill="white"></path> <path d="M91.9021 30.5879C94.6686 29.504 96.4112 26.8034 96.4112 23.8392C96.4112 20.0187 94.4351 16.3359 87.0995 16.3359H82.8838V21.1086H86.9977C90.2553 21.1086 91.1116 22.1924 91.1116 23.8392C91.1116 25.6836 89.6984 26.7375 87.1953 26.7375H82.8838V31.5101H86.5366L92.1655 39.3786H98.3154L91.9021 30.5879Z" fill="white"></path> <path d="M111.579 31.1149V39.3786H106.477V31.1149L97.2314 16.3359H103.321L109.112 25.5518L115.034 16.3359H120.927L111.579 31.1149Z" fill="black"></path> <defs> <linearGradient id="paint0_linear" x1="109.208" y1="-2.54307e-06" x2="61.9193" y2="60.9152" gradientUnits="userSpaceOnUse"> <stop stop-color="#D724DC"></stop> <stop offset="1" stop-color="#FF856C"></stop> </linearGradient> </defs> </svg> 